<?xml version="1.0" encoding="utf-8" ?>
<svg xmlns="http://www.w3.org/2000/svg" xmlns:xlink="http://www.w3.org/1999/xlink" xmlns:svgjs="http://svgjs.com/svgjs" version="1.1" width="256.000000pt" height="256.000000pt">
  <svg xmlns="http://www.w3.org/2000/svg" width="256.000000pt" height="256.000000pt" viewBox="0 0 256.000000 256.000000" preserveAspectRatio="xMidYMid meet">
    <g transform="translate(0.000000,256.000000) scale(0.100000,-0.100000)" fill="#000000" stroke="none" >
      <path d="M295 2536 c-111 -35 -202 -112 -252 -213 l-28 -58 -3 -784 -2 -784 30 -66 c33 -69 91 -138 150 -175 71 -46 116 -54 313 -61 l187 -6 0 101 0 100 -168 0 c-156 0 -172 2 -211 23 -24 12 -57 42 -75 66 l-31 43 0 746 c0 729 0 748 20 781 11 19 37 48 58 65 l39 31 216 8 c119 4 280 5 357 2 209 -9 214 -9 300 -1 l80 8 -67 64 c-37 35 -91 77 -120 94 l-53 30 -350 -1 c-254 0 -361 -4 -390 -13z"/>
      <path d="M1149 2251 c-145 -13 -257 -92 -322 -229 l-32 -67 -3 -750 c-2 -417 1 -791 6 -842 7 -69 17 -107 38 -149 34 -67 114 -143 189 -179 l55 -25 597 2 598 3 58 27 c71 34 146 109 184 185 l28 58 0 631 0 630 -40 60 c-51 76 -522 547 -598 599 -59 39 -59 40 -185 46 -155 9 -469 8 -573 0z m681 -209 c30 -24 39 -82 39 -254 1 -210 9 -218 218 -218 172 -1 220 -10 251 -45 l23 -27 -3 -582 c-3 -526 -5 -584 -20 -612 -23 -42 -71 -81 -116 -94 -25 -8 -210 -10 -574 -8 -607 3 -556 -4 -625 87 l-33 43 0 789 c0 757 1 791 19 827 24 46 56 76 101 96 29 13 93 15 366 16 306 0 334 -1 354 -18z"/>
      <path d="M1890 1361 c-55 -11 -95 -37 -172 -109 l-71 -67 44 -6 c24 -4 58 -9 74 -13 25 -6 37 -1 79 33 38 33 56 41 88 41 57 0 98 -42 98 -100 0 -41 -5 -47 -148 -192 -134 -136 -151 -150 -189 -155 -32 -4 -50 0 -77 16 -47 30 -87 25 -105 -13 -12 -25 -11 -31 6 -55 28 -38 99 -71 153 -71 99 0 133 21 292 180 164 164 187 200 188 293 0 138 -126 244 -260 218z"/>
      <path d="M1551 1060 c-56 -26 -310 -278 -335 -334 -53 -115 -12 -241 97 -298 57 -30 147 -30 204 0 43 23 163 128 163 143 0 5 -23 9 -51 9 -28 0 -60 5 -71 11 -17 9 -25 6 -52 -20 -17 -17 -45 -35 -63 -41 -73 -26 -148 50 -123 124 6 20 62 83 148 169 128 127 141 137 176 137 20 0 54 -10 75 -22 47 -27 87 -19 102 19 8 22 6 32 -9 52 -48 67 -172 91 -261 51z"/>
    </g>
  </svg>
  <style>@media (prefers-color-scheme: light) { :root { filter: none; } }
</style>
</svg>
